<svg width="34" height="34" viewBox="0 0 34 34" fill="none" xmlns="http://www.w3.org/2000/svg">
<path d="M28.3333 9.91666H5.66667C4.10186 9.91666 2.83334 11.1852 2.83334 12.75V26.9167C2.83334 28.4815 4.10186 29.75 5.66667 29.75H28.3333C29.8981 29.75 31.1667 28.4815 31.1667 26.9167V12.75C31.1667 11.1852 29.8981 9.91666 28.3333 9.91666Z" stroke="white" stroke-width="3" stroke-linecap="round" stroke-linejoin="round"/>
<path d="M22.6667 29.75V7.08333C22.6667 6.33189 22.3682 5.61122 21.8368 5.07986C21.3055 4.54851 20.5848 4.25 19.8333 4.25H14.1667C13.4152 4.25 12.6946 4.54851 12.1632 5.07986C11.6318 5.61122 11.3333 6.33189 11.3333 7.08333V29.75" stroke="white" stroke-width="3" stroke-linecap="round" stroke-linejoin="round"/>
</svg>
